<svg width="128" height="128" viewBox="0 0 128 128" fill="none" xmlns="http://www.w3.org/2000/svg">
<rect x="14" y="14" width="100" height="100" rx="16" fill="white"/>
<g clip-path="url(#clip0_3_8)">
<path d="M98.825 26C100.578 26 102 27.4215 102 29.175V65.5399C92.8841 65.5341 85.4956 58.1456 85.4898 49.0297V42.5208H78.7481C74.3665 42.5208 70.1644 40.7802 67.0661 37.682C63.9678 34.5837 62.2273 30.3816 62.2273 26H98.825ZM80.7166 44.2353C82.4701 44.2353 83.8917 45.6569 83.8917 47.4104V83.7752C74.7757 83.7752 67.3825 76.3915 67.3708 67.2756V60.7456H60.6292C51.5132 60.7397 44.1248 53.3513 44.1189 44.2353H80.7166ZM62.5977 62.4601C64.3512 62.4601 65.7727 63.8816 65.7727 65.6351V102C56.6651 101.982 49.2895 94.5974 49.2837 85.4898V78.9809H42.5208C33.3966 78.9809 26 71.5843 26 62.4601H62.5977Z" fill="#2684FF"/>
</g>
<defs>
<clipPath id="clip0_3_8">
<rect width="76" height="76" fill="white" transform="translate(26 26)"/>
</clipPath>
</defs>
</svg>
